<svg xmlns="http://www.w3.org/2000/svg" width="30" height="23.333" viewBox="0 0 30 23.333">
  <g id="cc-mastercard" transform="translate(0)">
    <path id="Shape" d="M27.5,23.333H2.5a2.5,2.5,0,0,1-2.5-2.5V2.5A2.5,2.5,0,0,1,2.5,0h25A2.5,2.5,0,0,1,30,2.5V20.833A2.5,2.5,0,0,1,27.5,23.333Zm-8.707-4.688a1.011,1.011,0,1,0,.011,2.022,1.05,1.05,0,0,0,.675-.23l-.2-.338a.848.848,0,0,1-.486.164.573.573,0,0,1-.592-.612.565.565,0,0,1,.583-.61.851.851,0,0,1,.5.173l.2-.338A1.113,1.113,0,0,0,18.794,18.645Zm5.722,0a.956.956,0,0,0-.649.258.993.993,0,0,0-.3.75.965.965,0,0,0,.963,1.009.7.7,0,0,0,.594-.284v.239h.411V17.922H25.12v1.005A.741.741,0,0,0,24.516,18.643Zm-3.866,0A.963.963,0,0,0,20,18.9a.991.991,0,0,0-.306.746.966.966,0,0,0,.965,1.009.7.7,0,0,0,.592-.284v.239h.427V18.7H21.25v.229A.738.738,0,0,0,20.65,18.644Zm-8.343.054v.381h.4v.869c0,.619.4.711.645.711a1.037,1.037,0,0,0,.531-.143l-.114-.354,0,0a.859.859,0,0,1-.352.1.276.276,0,0,1-.2-.067.33.33,0,0,1-.084-.248v-.864h.682V18.7H13.13v-.583H12.7V18.7Zm-1.786,1.4-.183.328a1.511,1.511,0,0,0,.829.236,1.144,1.144,0,0,0,.606-.152.544.544,0,0,0,.264-.474c0-.464-.423-.528-.762-.58-.231-.034-.43-.064-.43-.212s.131-.212.358-.212a1.329,1.329,0,0,1,.6.156l.172-.339a1.482,1.482,0,0,0-.752-.2c-.4,0-.822.165-.822.627,0,.443.422.512.761.568h.006c.229.038.427.071.427.212s-.152.242-.408.242a1.3,1.3,0,0,1-.671-.2ZM15.1,18.641a.936.936,0,0,0-.949,1.005.954.954,0,0,0,1,1.01,1.171,1.171,0,0,0,.758-.271l-.2-.312a.918.918,0,0,1-.568.215.558.558,0,0,1-.572-.47h1.433a1.307,1.307,0,0,0-.3-.95A.822.822,0,0,0,15.1,18.641Zm-6.193.005a1.007,1.007,0,0,0,0,2.01.719.719,0,0,0,.609-.281v.239h.411V18.7H9.516v.229A.75.75,0,0,0,8.906,18.646Zm17.167,1.615-.016,0-.008,0a.15.15,0,0,1-.049.01.271.271,0,0,0-.058.041.082.082,0,0,0-.041.058.161.161,0,0,0-.015.083.152.152,0,0,0,.015.073.082.082,0,0,0,.041.058A.172.172,0,0,0,26,20.63a.138.138,0,0,0,.073.016.151.151,0,0,0,.083-.016.108.108,0,0,1,.019-.014l.006,0a.132.132,0,0,0,.032-.023.114.114,0,0,0,.021-.028.159.159,0,0,1,.021-.03.145.145,0,0,0,.016-.073.154.154,0,0,0-.016-.083.137.137,0,0,1-.017-.023l0,0a.147.147,0,0,0-.022-.03.115.115,0,0,0-.02-.015l-.009-.006a.182.182,0,0,1-.029-.02.167.167,0,0,1-.04-.007A.161.161,0,0,0,26.073,20.261ZM22.229,18.7v1.912h.411V19.531c0-.447.288-.5.412-.5a.6.6,0,0,1,.255.058l.125-.4a.7.7,0,0,0-.28-.056.562.562,0,0,0-.512.285V18.7Zm-5.8,0v1.912h.428V19.531c0-.433.253-.5.4-.5a.668.668,0,0,1,.262.06l.125-.4a.72.72,0,0,0-.284-.059.567.567,0,0,0-.508.288V18.7Zm-9.688.339a.39.39,0,0,1,.293.1c.154.157.149.487.14.987v.118c0,.113,0,.238,0,.368H7.6v-1.2h-.01a.733.733,0,0,0-.766-.765.745.745,0,0,0-.667.338.691.691,0,0,0-.635-.338.66.66,0,0,0-.552.281V18.7H4.541v1.912h.427c0-.069,0-.132,0-.2v-.176l0-.075c-.012-.489-.02-.843.144-1.011a.44.44,0,0,1,.331-.112.388.388,0,0,1,.291.1c.155.158.149.489.14.989v.12c0,.113,0,.236,0,.364h.411c0-.07,0-.135,0-.2v-.158l0-.07c-.012-.5-.02-.854.148-1.027A.433.433,0,0,1,6.745,19.037ZM10.536,2.573a7.206,7.206,0,1,0,4,13.208,7.767,7.767,0,0,1,0-12.005,7.185,7.185,0,0,0-3.984-1.2h-.011Zm8.917-.005a7.227,7.227,0,0,0-3.985,1.2,7.777,7.777,0,0,1,2.838,6.074,7.628,7.628,0,0,1-2.838,5.931,7.287,7.287,0,0,0,3.985,1.2h.01a7.206,7.206,0,1,0-.01-14.412ZM15,4.109h0a7.186,7.186,0,0,0-2.749,5.7A7.111,7.111,0,0,0,15,15.438,7.212,7.212,0,0,0,15,4.109Zm11.378,9.926h0v.209h.058v-.282h-.073l-.084.183-.083-.183h-.073v.282h.041v-.214l.084.183h.057l.071-.177Zm-1.811,6.225a.61.61,0,0,1,0-1.22.584.584,0,0,1,.584.609A.572.572,0,0,1,24.567,20.261Zm-3.869,0a.611.611,0,0,1,0-1.22.577.577,0,0,1,.583.609A.565.565,0,0,1,20.7,20.261Zm-11.735,0a.61.61,0,0,1,0-1.22.577.577,0,0,1,.568.609A.565.565,0,0,1,8.963,20.261Zm6.62-.781h-.995a.485.485,0,0,1,.495-.454.479.479,0,0,1,.5.452Z" fill="#242a37"/>
  </g>
</svg>
