<svg id="cc-paypal" xmlns="http://www.w3.org/2000/svg" width="30" height="23.333" viewBox="0 0 30 23.333">
  <path id="Shape" d="M27.5,23.333H2.5a2.5,2.5,0,0,1-2.5-2.5V2.5A2.5,2.5,0,0,1,2.5,0h25A2.5,2.5,0,0,1,30,2.5V20.833A2.5,2.5,0,0,1,27.5,23.333ZM11.906,10.015a.187.187,0,0,0-.167.183c0,.038.4,1.21.743,2.186.218.627.335.971.361,1.049l-.04.056a9.615,9.615,0,0,0-1.029,1.589.168.168,0,0,0,.167.167h1a.309.309,0,0,0,.234-.136L16.5,10.286a.108.108,0,0,0,.025-.088.185.185,0,0,0-.167-.183h-1a.3.3,0,0,0-.234.13l-1.381,2.031-.572-1.953a.317.317,0,0,0-.287-.209Zm11.506-.1a2.175,2.175,0,0,0-1.6.714,2.44,2.44,0,0,0-.646,1.64,1.56,1.56,0,0,0,1.651,1.678,1.969,1.969,0,0,0,1.381-.62l0,.019,0,.009a1.979,1.979,0,0,0-.047.3c0,.132.061.208.167.208h.9c.145,0,.262-.154.287-.3l.531-3.349a.181.181,0,0,0-.042-.143.165.165,0,0,0-.124-.059h-.99c-.181,0-.205.242-.22.386l0,.041A1.317,1.317,0,0,0,23.412,9.917Zm-14.787,0a2.334,2.334,0,0,0-2.25,2.354,1.56,1.56,0,0,0,1.652,1.678,2.027,2.027,0,0,0,1.38-.62,1.469,1.469,0,0,0-.051.323c0,.132.061.208.167.208h.9c.144,0,.261-.154.286-.3l.532-3.349a.185.185,0,0,0-.042-.143.166.166,0,0,0-.125-.059h-.989c-.19,0-.208.264-.218.405v.022A1.342,1.342,0,0,0,8.625,9.917ZM2.792,8.094a.275.275,0,0,0-.271.245l-.854,5.318a.186.186,0,0,0,.043.149.157.157,0,0,0,.123.059h.99a.333.333,0,0,0,.286-.3l.234-1.385c.025-.182.185-.266.5-.266.079,0,.169,0,.268.013l.028,0,.026,0h.016c.042,0,.073,0,.1,0a2.2,2.2,0,0,0,2.4-2.386c0-1.269-1.132-1.458-1.807-1.458Zm24.412,0a.172.172,0,0,0-.167.14l-.844,5.417-.015.026a.192.192,0,0,0,.055.13.181.181,0,0,0,.127.052h.86a.323.323,0,0,0,.271-.3l.843-5.27V8.276a.175.175,0,0,0-.167-.183Zm-9.6,0a.286.286,0,0,0-.286.245l-.843,5.313a.2.2,0,0,0,.05.153.156.156,0,0,0,.116.055H17.7a.222.222,0,0,0,.209-.167l.234-1.51c.025-.182.185-.266.5-.266.1,0,.19.006.268.013l.028,0,.026,0h.016c.037,0,.069,0,.1,0a2.194,2.194,0,0,0,2.39-2.386c0-1.269-1.132-1.458-1.807-1.458ZM23.36,12.9a.763.763,0,0,1-.844-.781,1.126,1.126,0,0,1,1.13-1.146.875.875,0,0,1,.631.237.779.779,0,0,1,.214.571A1.113,1.113,0,0,1,23.36,12.9Zm-14.8,0a.75.75,0,0,1-.833-.781,1.126,1.126,0,0,1,1.13-1.146.785.785,0,0,1,.849.807A1.121,1.121,0,0,1,8.557,12.9Zm-5-2.114h0L3.781,9.4a.163.163,0,0,1,.167-.14h.245c.385,0,.673.036.822.213a.667.667,0,0,1,.089.562c-.107.683-.591.74-1.12.74Zm14.807,0h0l.219-1.39a.154.154,0,0,1,.167-.14h.235c.493,0,.937.044.942.578,0,.778-.458.938-1.146.938Z" fill="#242a37"/>
</svg>
