<svg id="cc-visa" xmlns="http://www.w3.org/2000/svg" width="30" height="23.333" viewBox="0 0 30 23.333">
  <path id="Shape" d="M27.5,23.333H2.5a2.5,2.5,0,0,1-2.5-2.5V2.5A2.5,2.5,0,0,1,2.5,0h25A2.5,2.5,0,0,1,30,2.5V20.833A2.5,2.5,0,0,1,27.5,23.333ZM14.458,13.459l-.292,1.817a6.392,6.392,0,0,0,2.333.433h.014c2.191,0,3.617-1.083,3.632-2.76.011-.922-.547-1.623-1.755-2.2-.736-.371-1.183-.623-1.183-1,.011-.348.387-.7,1.2-.7h.09a3.584,3.584,0,0,1,1.467.309l.188.088.286-1.751a5.17,5.17,0,0,0-1.875-.343c-2.069,0-3.521,1.1-3.532,2.677-.015,1.151,1.039,1.806,1.833,2.2s1.084.655,1.084,1.005c-.011.544-.658.792-1.255.792a4.147,4.147,0,0,1-1.963-.433Zm8.167.922h2.687c.061.283.248,1.2.25,1.213H27.5L25.813,7.5h-1.62a1.022,1.022,0,0,0-1.094.672L19.99,15.593h2.2s.061-.171.138-.384c.11-.306.253-.7.3-.829ZM12.078,7.5l-1.307,8.094h2.088L14.172,7.5ZM1.7,7.5h0l-.036.162a8.262,8.262,0,0,1,2.2.89l1.865,7.032H7.943L11.235,7.5H9.021L6.974,13.021,6.75,11.9,6.021,8.182c-.1-.447-.4-.657-.948-.682H1.7Zm23.266,5.225h-1.74c.041-.109.109-.294.181-.49l.152-.413.005-.015.01-.028.093-.252.056-.152,0-.006.12-.326.135-.368.041-.111.039-.1s.012-.038.054-.155l.031-.087,0-.005.19-.526.145.695s0,.012.005.028l0,.006.005.028.01.049c.217,1.055.369,1.8.461,2.231Z" fill="#242a37"/>
</svg>
